HIERARCHY
ROOT Hips
{
	OFFSET 0.000000 0.000000 0.000000
	CHANNELS 6 Xposition Yposition Zposition Xrotation Yrotation Zrotation
	JOINT Thigh.L
	{
		OFFSET 0.053423 0.030106 -0.090485
		CHANNELS 3 Xrotation Yrotation Zrotation
		JOINT Shin.L
		{
			OFFSET 0.052368 0.016228 -0.403484
			CHANNELS 3 Xrotation Yrotation Zrotation
			JOINT Foot.L
			{
				OFFSET -0.040962 0.032036 -0.423239
				CHANNELS 3 Xrotation Yrotation Zrotation
				JOINT Toe.L
				{
					OFFSET 0.044244 -0.117596 -0.062490
					CHANNELS 3 Xrotation Yrotation Zrotation
					End Site
					{
						OFFSET 0.000000 0.050000 0.000000
					}
				}
			}
		}
	}
	JOINT Thigh.R
	{
		OFFSET -0.058656 0.027517 -0.100672
		CHANNELS 3 Xrotation Yrotation Zrotation
		JOINT Shin.R
		{
			OFFSET -0.041950 0.021481 -0.387504
			CHANNELS 3 Xrotation Yrotation Zrotation
			JOINT Foot.R
			{
				OFFSET 0.015469 0.020749 -0.431927
				CHANNELS 3 Xrotation Yrotation Zrotation
				JOINT Toe.R
				{
					OFFSET -0.036769 -0.118380 -0.062560
					CHANNELS 3 Xrotation Yrotation Zrotation
					End Site
					{
						OFFSET 0.000000 0.050000 0.000000
					}
				}
			}
		}
	}
	JOINT Spine
	{
		OFFSET -0.001882 0.019243 0.106930
		CHANNELS 3 Xrotation Yrotation Zrotation
		JOINT Spine.2
		{
			OFFSET 0.006427 0.002488 0.130899
			CHANNELS 3 Xrotation Yrotation Zrotation
			JOINT Chest
			{
				OFFSET -0.010244 -0.023139 0.048463
				CHANNELS 3 Xrotation Yrotation Zrotation
				JOINT Neck
				{
					OFFSET -0.009337 0.029265 0.162583
					CHANNELS 3 Xrotation Yrotation Zrotation
					JOINT Head
					{
						OFFSET 0.022056 -0.022623 0.167611
						CHANNELS 3 Xrotation Yrotation Zrotation
						End Site
						{
							OFFSET 0.000000 0.050000 0.000000
						}
					}
				}
				JOINT Clavicle.L
				{
					OFFSET 0.043116 0.008489 0.082986
					CHANNELS 3 Xrotation Yrotation Zrotation
					JOINT UpperArm.L
					{
						OFFSET 0.105381 0.014278 0.060139
						CHANNELS 3 Xrotation Yrotation Zrotation
						JOINT ForeArm.L
						{
							OFFSET 0.260479 0.034871 -0.074381
							CHANNELS 3 Xrotation Yrotation Zrotation
							JOINT Hand.L
							{
								OFFSET 0.258319 0.006327 0.020769
								CHANNELS 3 Xrotation Yrotation Zrotation
								JOINT Thumb1.L
								{
									OFFSET 0.154578 0.002929 0.009614
									CHANNELS 3 Xrotation Yrotation Zrotation
									JOINT Thumb2.L
									{
										OFFSET 0.029895 0.000732 0.002404
										CHANNELS 3 Xrotation Yrotation Zrotation
										End Site
										{
											OFFSET 0.024912 0.000610 0.002003
										}
									}
								}
								JOINT Index1.L
								{
									OFFSET 0.137578 0.002929 0.009614
									CHANNELS 3 Xrotation Yrotation Zrotation
									JOINT Index2.L
									{
										OFFSET 0.029895 0.000732 0.002404
										CHANNELS 3 Xrotation Yrotation Zrotation
										JOINT Index3.L
										{
											OFFSET 0.021923 0.000537 0.001763
											CHANNELS 3 Xrotation Yrotation Zrotation
											End Site
											{
												OFFSET 0.017937 0.000439 0.001442
											}
										}
									}
								}
								JOINT Middle1.L
								{
									OFFSET 0.119578 0.002929 0.009614
									CHANNELS 3 Xrotation Yrotation Zrotation
									JOINT Middle2.L
									{
										OFFSET 0.030891 0.000757 0.002484
										CHANNELS 3 Xrotation Yrotation Zrotation
										JOINT Middle3.L
										{
											OFFSET 0.021923 0.000537 0.001763
											CHANNELS 3 Xrotation Yrotation Zrotation
											End Site
											{
												OFFSET 0.017937 0.000439 0.001442
											}
										}
									}
								}
								JOINT Ring1.L
								{
									OFFSET 0.101578 0.002929 0.009614
									CHANNELS 3 Xrotation Yrotation Zrotation
									JOINT Ring2.L
									{
										OFFSET 0.028898 0.000708 0.002323
										CHANNELS 3 Xrotation Yrotation Zrotation
										JOINT Ring3.L
										{
											OFFSET 0.019930 0.000488 0.001602
											CHANNELS 3 Xrotation Yrotation Zrotation
											End Site
											{
												OFFSET 0.016940 0.000415 0.001362
											}
										}
									}
								}
								JOINT Pinky1.L
								{
									OFFSET 0.085578 0.002929 0.009614
									CHANNELS 3 Xrotation Yrotation Zrotation
									JOINT Pinky2.L
									{
										OFFSET 0.023916 0.000586 0.001923
										CHANNELS 3 Xrotation Yrotation Zrotation
										JOINT Pinky3.L
										{
											OFFSET 0.016940 0.000415 0.001362
											CHANNELS 3 Xrotation Yrotation Zrotation
											End Site
											{
												OFFSET 0.013951 0.000342 0.001122
											}
										}
									}
								}
							}
						}
					}
				}
				JOINT Clavicle.R
				{
					OFFSET -0.041177 0.014534 0.082432
					CHANNELS 3 Xrotation Yrotation Zrotation
					JOINT UpperArm.R
					{
						OFFSET -0.090909 0.009349 0.055976
						CHANNELS 3 Xrotation Yrotation Zrotation
						JOINT ForeArm.R
						{
							OFFSET -0.276231 0.022341 -0.042196
							CHANNELS 3 Xrotation Yrotation Zrotation
							JOINT Hand.R
							{
								OFFSET -0.255216 0.018679 -0.003562
								CHANNELS 3 Xrotation Yrotation Zrotation
								JOINT Thumb1.R
								{
									OFFSET -0.154668 0.008758 -0.001670
									CHANNELS 3 Xrotation Yrotation Zrotation
									JOINT Thumb2.R
									{
										OFFSET -0.029917 0.002190 -0.000418
										CHANNELS 3 Xrotation Yrotation Zrotation
										End Site
										{
											OFFSET -0.024931 0.001825 -0.000348
										}
									}
								}
								JOINT Index1.R
								{
									OFFSET -0.137668 0.008758 -0.001670
									CHANNELS 3 Xrotation Yrotation Zrotation
									JOINT Index2.R
									{
										OFFSET -0.029917 0.002190 -0.000418
										CHANNELS 3 Xrotation Yrotation Zrotation
										JOINT Index3.R
										{
											OFFSET -0.021939 0.001606 -0.000306
											CHANNELS 3 Xrotation Yrotation Zrotation
											End Site
											{
												OFFSET -0.017950 0.001314 -0.000251
											}
										}
									}
								}
								JOINT Middle1.R
								{
									OFFSET -0.119668 0.008758 -0.001670
									CHANNELS 3 Xrotation Yrotation Zrotation
									JOINT Middle2.R
									{
										OFFSET -0.030914 0.002263 -0.000431
										CHANNELS 3 Xrotation Yrotation Zrotation
										JOINT Middle3.R
										{
											OFFSET -0.021939 0.001606 -0.000306
											CHANNELS 3 Xrotation Yrotation Zrotation
											End Site
											{
												OFFSET -0.017950 0.001314 -0.000251
											}
										}
									}
								}
								JOINT Ring1.R
								{
									OFFSET -0.101668 0.008758 -0.001670
									CHANNELS 3 Xrotation Yrotation Zrotation
									JOINT Ring2.R
									{
										OFFSET -0.028920 0.002117 -0.000404
										CHANNELS 3 Xrotation Yrotation Zrotation
										JOINT Ring3.R
										{
											OFFSET -0.019945 0.001460 -0.000278
											CHANNELS 3 Xrotation Yrotation Zrotation
											End Site
											{
												OFFSET -0.016953 0.001241 -0.000237
											}
										}
									}
								}
								JOINT Pinky1.R
								{
									OFFSET -0.085668 0.008758 -0.001670
									CHANNELS 3 Xrotation Yrotation Zrotation
									JOINT Pinky2.R
									{
										OFFSET -0.023934 0.001752 -0.000334
										CHANNELS 3 Xrotation Yrotation Zrotation
										JOINT Pinky3.R
										{
											OFFSET -0.016953 0.001241 -0.000237
											CHANNELS 3 Xrotation Yrotation Zrotation
											End Site
											{
												OFFSET -0.013961 0.001022 -0.000195
											}
										}
									}
								}
							}
						}
					}
				}
			}
		}
	}
}
MOTION
Frames: 4
Frame Time: 0.04166667
-0.001301559 -0.043654548 1.118871 -6.428079 0.683296 0.744087 2.852673 1.141003 -0.345094 6.258448 -0.179182 -5.636903 -2.301470 2.314315 8.705866 3.016445 -3.155507 1.018466 1.711616 -1.586762 -0.002419 7.589914 1.589701 1.846440 -1.380244 -2.918402 -5.535010 0.852431 -2.791920 -1.735473 2.056233 0.660290 2.938494 8.922341 -4.572904 -3.643248 -7.117097 1.752107 0.785536 13.415781 4.547412 -0.253140 8.633864 -1.607379 5.396461 7.759985 20.547522 0.096732 18.817628 49.620128 -23.632602 12.045047 -1.914909 -20.482747 4.436602 1.620494 -7.989314 0.000000 0.000000 0.000000 0.000000 0.000000 0.000000 0.000000 0.000000 0.000000 0.000000 0.000000 0.000000 0.000000 0.000000 0.000000 0.000000 0.000000 0.000000 0.000000 0.000000 0.000000 0.000000 0.000000 0.000000 0.000000 0.000000 0.000000 0.000000 0.000000 0.000000 0.000000 0.000000 0.000000 0.000000 0.000000 0.000000 0.000000 0.000000 0.000000 0.000000 0.000000 0.000000 5.002172 -13.409556 3.277542 28.280826 -53.137297 25.635959 9.379831 3.476933 28.308684 -0.003613 -4.366683 3.622375 0.000000 0.000000 0.000000 0.000000 0.000000 0.000000 0.000000 0.000000 0.000000 0.000000 0.000000 0.000000 0.000000 0.000000 0.000000 0.000000 0.000000 0.000000 0.000000 0.000000 0.000000 0.000000 0.000000 0.000000 0.000000 0.000000 0.000000 0.000000 0.000000 0.000000 0.000000 0.000000 0.000000 0.000000 0.000000 0.000000 0.000000 0.000000 0.000000 0.000000 0.000000 0.000000
-0.001028167 -0.044493750 1.118643 -6.418567 0.702715 0.527815 2.953215 1.157961 -0.360008 6.178738 -0.157409 -5.655557 -2.365060 2.223409 8.738803 3.021663 -3.156852 1.036221 1.741717 -1.590411 -0.015249 7.514972 1.631425 1.877819 -1.415472 -2.907963 -5.478338 0.858386 -2.814378 -1.739181 1.938078 0.588401 2.925287 8.787704 -4.525543 -3.617438 -6.913872 1.775008 0.743190 13.261154 4.430711 -0.367576 8.661137 -1.561597 5.145728 7.657166 20.577474 0.165484 18.916918 49.611386 -23.609584 12.171525 -1.924485 -20.434370 4.398737 1.828907 -8.075153 0.000000 0.000000 0.000000 0.000000 0.000000 0.000000 0.000000 0.000000 0.000000 0.000000 0.000000 0.000000 0.000000 0.000000 0.000000 0.000000 0.000000 0.000000 0.000000 0.000000 0.000000 0.000000 0.000000 0.000000 0.000000 0.000000 0.000000 0.000000 0.000000 0.000000 0.000000 0.000000 0.000000 0.000000 0.000000 0.000000 0.000000 0.000000 0.000000 0.000000 0.000000 0.000000 4.860454 -13.470539 3.278095 28.323941 -53.094458 25.580392 9.372108 3.536689 28.342678 -0.003199 -4.397710 3.668118 0.000000 0.000000 0.000000 0.000000 0.000000 0.000000 0.000000 0.000000 0.000000 0.000000 0.000000 0.000000 0.000000 0.000000 0.000000 0.000000 0.000000 0.000000 0.000000 0.000000 0.000000 0.000000 0.000000 0.000000 0.000000 0.000000 0.000000 0.000000 0.000000 0.000000 0.000000 0.000000 0.000000 0.000000 0.000000 0.000000 0.000000 0.000000 0.000000 0.000000 0.000000 0.000000
-0.000875590 -0.045145702 1.118430 -6.476497 0.684712 0.396042 3.100543 1.191663 -0.371012 6.113117 -0.134777 -5.622079 -2.377767 2.174939 8.716157 3.037632 -3.117210 1.050156 1.831245 -1.570419 0.035833 7.456433 1.645400 1.887273 -1.406449 -2.845655 -5.472947 0.855802 -2.803866 -1.738807 1.855764 0.583938 2.930440 8.744621 -4.534659 -3.612301 -6.860591 1.792985 0.730678 13.222642 4.328202 -0.454259 8.662578 -1.505667 4.979402 7.646619 20.598146 0.179314 19.064104 49.589998 -23.640117 12.163862 -1.926635 -20.498858 4.447320 1.933463 -8.141611 0.000000 0.000000 0.000000 0.000000 0.000000 0.000000 0.000000 0.000000 0.000000 0.000000 0.000000 0.000000 0.000000 0.000000 0.000000 0.000000 0.000000 0.000000 0.000000 0.000000 0.000000 0.000000 0.000000 0.000000 0.000000 0.000000 0.000000 0.000000 0.000000 0.000000 0.000000 0.000000 0.000000 0.000000 0.000000 0.000000 0.000000 0.000000 0.000000 0.000000 0.000000 0.000000 4.811585 -13.513777 3.304972 28.417576 -53.038082 25.628391 9.370209 3.550842 28.240422 0.138617 -4.376184 3.678362 0.000000 0.000000 0.000000 0.000000 0.000000 0.000000 0.000000 0.000000 0.000000 0.000000 0.000000 0.000000 0.000000 0.000000 0.000000 0.000000 0.000000 0.000000 0.000000 0.000000 0.000000 0.000000 0.000000 0.000000 0.000000 0.000000 0.000000 0.000000 0.000000 0.000000 0.000000 0.000000 0.000000 0.000000 0.000000 0.000000 0.000000 0.000000 0.000000 0.000000 0.000000 0.000000
-0.000763161 -0.045585908 1.118159 -6.523839 0.700704 0.368231 3.173455 1.186421 -0.374864 6.113818 -0.151136 -5.627112 -2.375520 2.153388 8.670439 3.054081 -3.064034 1.051870 1.870743 -1.584652 0.074698 7.461468 1.634844 1.879545 -1.387068 -2.809592 -5.449427 0.852768 -2.758312 -1.730514 1.840088 0.590093 2.935938 8.792058 -4.563622 -3.587473 -6.963358 1.795865 0.737084 13.211768 4.283693 -0.484587 8.663554 -1.485624 4.892317 7.713921 20.671966 0.151240 19.085008 49.533544 -23.640578 12.122086 -1.937623 -20.565013 4.447214 2.018227 -8.219335 0.000000 0.000000 0.000000 0.000000 0.000000 0.000000 0.000000 0.000000 0.000000 0.000000 0.000000 0.000000 0.000000 0.000000 0.000000 0.000000 0.000000 0.000000 0.000000 0.000000 0.000000 0.000000 0.000000 0.000000 0.000000 0.000000 0.000000 0.000000 0.000000 0.000000 0.000000 0.000000 0.000000 0.000000 0.000000 0.000000 0.000000 0.000000 0.000000 0.000000 0.000000 0.000000 4.902656 -13.574817 3.350279 28.398515 -52.976525 25.590653 9.403554 3.593340 28.189946 0.212269 -4.423773 3.718485 0.000000 0.000000 0.000000 0.000000 0.000000 0.000000 0.000000 0.000000 0.000000 0.000000 0.000000 0.000000 0.000000 0.000000 0.000000 0.000000 0.000000 0.000000 0.000000 0.000000 0.000000 0.000000 0.000000 0.000000 0.000000 0.000000 0.000000 0.000000 0.000000 0.000000 0.000000 0.000000 0.000000 0.000000 0.000000 0.000000 0.000000 0.000000 0.000000 0.000000 0.000000 0.000000
